<svg id="svg" version="1.1" width="500" height="500" xmlns="http://www.w3.org/2000/svg" xmlns:xlink="http://www.w3.org/1999/xlink" style="display: block;"><g id="svgg"><path id="path0" d="M88.609 29.366 C 89.604 29.557,91.044 29.550,91.809 29.350 C 92.574 29.149,91.760 28.993,90.000 29.002 C 88.240 29.011,87.614 29.174,88.609 29.366 M214.133 29.333 C 213.840 29.627,213.600 66.707,213.600 111.733 L 213.600 193.600 296.000 193.600 L 378.400 193.600 378.400 111.200 L 378.400 28.800 296.533 28.800 C 251.507 28.800,214.427 29.040,214.133 29.333 M27.200 295.600 L 27.200 377.600 110.000 377.600 L 192.800 377.600 192.800 295.600 L 192.800 213.600 110.000 213.600 L 27.200 213.600 27.200 295.600 " stroke="none" fill="#333333" fill-rule="evenodd"></path><path id="path1" d="M43.000 29.399 C 51.030 29.529,64.170 29.529,72.200 29.399 C 80.230 29.268,73.660 29.162,57.600 29.162 C 41.540 29.162,34.970 29.268,43.000 29.399 M103.000 29.398 C 108.390 29.536,117.210 29.536,122.600 29.398 C 127.990 29.259,123.580 29.146,112.800 29.146 C 102.020 29.146,97.610 29.259,103.000 29.398 M27.567 91.600 C 27.568 110.960,27.672 118.766,27.799 108.946 C 27.927 99.126,27.927 83.286,27.799 73.746 C 27.671 64.206,27.567 72.240,27.567 91.600 M27.532 149.600 C 27.532 157.740,27.651 161.070,27.796 157.000 C 27.941 152.930,27.941 146.270,27.796 142.200 C 27.651 138.130,27.532 141.460,27.532 149.600 M192.355 168.800 C 192.355 182.220,192.465 187.710,192.598 181.000 C 192.732 174.290,192.732 163.310,192.598 156.600 C 192.465 149.890,192.355 155.380,192.355 168.800 " stroke="none" fill="#ff0000" fill-rule="evenodd"></path><path id="path2" d="M158.182 29.377 C 159.602 29.554,162.122 29.557,163.782 29.384 C 165.442 29.211,164.280 29.066,161.200 29.063 C 158.120 29.059,156.762 29.201,158.182 29.377 M27.429 53.200 C 27.435 55.400,27.590 56.205,27.774 54.989 C 27.958 53.773,27.953 51.973,27.763 50.989 C 27.573 50.005,27.423 51.000,27.429 53.200 M192.333 130.000 C 192.334 138.360,192.453 141.671,192.597 137.358 C 192.741 133.046,192.740 126.206,192.596 122.158 C 192.451 118.111,192.333 121.640,192.333 130.000 M27.448 130.800 C 27.452 133.440,27.602 134.424,27.780 132.986 C 27.958 131.548,27.954 129.388,27.772 128.186 C 27.589 126.984,27.443 128.160,27.448 130.800 M27.474 185.200 C 27.477 188.720,27.618 190.060,27.787 188.179 C 27.956 186.297,27.953 183.417,27.782 181.779 C 27.610 180.140,27.471 181.680,27.474 185.200 M213.863 231.600 C 213.866 234.680,214.011 235.842,214.184 234.182 C 214.357 232.522,214.354 230.002,214.177 228.582 C 214.001 227.162,213.859 228.520,213.863 231.600 M213.874 278.800 C 213.877 282.320,214.018 283.660,214.187 281.779 C 214.356 279.897,214.353 277.017,214.182 275.379 C 214.010 273.740,213.871 275.280,213.874 278.800 M213.786 345.600 C 213.786 347.140,213.950 347.770,214.151 347.000 C 214.353 346.230,214.353 344.970,214.151 344.200 C 213.950 343.430,213.786 344.060,213.786 345.600 " stroke="none" fill="#bf4000" fill-rule="evenodd"></path><path id="path3" d="M80.200 29.406 L 28.000 29.612 28.018 38.606 C 28.028 43.553,27.994 77.120,27.943 113.200 C 27.893 149.280,27.885 182.130,27.926 186.200 L 28.000 193.600 109.868 193.600 L 191.737 193.600 192.268 134.668 C 193.059 46.989,192.987 30.750,191.800 29.770 C 191.146 29.229,180.698 28.988,161.600 29.072 C 145.540 29.142,108.910 29.293,80.200 29.406 M214.038 214.600 C 213.867 215.150,213.788 251.960,213.864 296.400 L 214.000 377.200 296.200 377.404 L 378.400 377.608 378.400 295.604 L 378.400 213.600 296.375 213.600 C 231.454 213.600,214.285 213.809,214.038 214.600 " stroke="none" fill="#f57900" fill-rule="evenodd"></path><path id="path4" d="M27.480 36.800 C 27.480 40.540,27.617 42.070,27.786 40.200 C 27.954 38.330,27.954 35.270,27.786 33.400 C 27.617 31.530,27.480 33.060,27.480 36.800 " stroke="none" fill="#ffff00" fill-rule="evenodd"></path></g></svg>